<svg width="384" height="349" viewBox="0 0 384 349" fill="none" xmlns="http://www.w3.org/2000/svg">
<g clip-path="url(#clip0_7_2)">
<path d="M118.626 77.5383C141.897 58.8792 164.946 40.4959 187.852 21.9358C191.099 19.3051 193.054 19.5576 196.294 22.1676C222.888 43.5887 249.676 64.7682 276.415 86.0088C281.456 90.0134 281.462 89.9754 277.216 94.6859C273.201 99.14 268.994 103.448 265.294 108.152C262.308 111.949 259.718 111.896 256.186 109.007C244.968 99.8307 233.62 90.8141 222.312 81.7488C213.734 74.8717 205.03 68.1448 196.607 61.0837C193.281 58.2957 190.908 58.4679 187.589 61.1525C160.783 82.8286 133.853 104.35 106.949 125.904C96.036 134.647 85.167 143.448 74.1168 152.014C71.2256 154.255 71.2607 156.989 71.2613 160.006C71.2717 208.663 71.2649 257.321 71.2719 305.979C71.2736 317.794 71.2899 317.797 83.2151 317.795C103.211 317.791 123.209 317.647 143.204 317.806C187.812 318.158 226.199 302.391 259.145 272.899C284.339 250.346 301.983 222.973 309.976 189.836C312.487 179.425 313.129 168.794 312.811 158.086C312.728 155.29 311.647 153.459 309.528 151.782C304.216 147.579 304.25 147.491 308.671 142.227C312.849 137.252 317.151 132.379 321.254 127.343C323.265 124.875 324.986 124.72 327.502 126.742C345.291 141.037 363.129 155.272 381.04 169.414C384.13 171.853 384.812 173.899 382.097 177.163C377.52 182.665 373.204 188.393 368.966 194.165C366.935 196.931 365.285 196.697 362.887 194.62C358.356 190.695 353.605 187.025 348.932 183.266C347.553 182.157 346.352 180.689 344.132 180.574C342.747 183.349 343.305 186.221 343.303 188.961C343.267 239.618 343.286 290.276 343.299 340.933C343.301 348.332 343.313 348.33 335.834 348.32C330.335 348.313 324.816 348.019 319.343 348.394C314.298 348.739 312.669 346.936 312.712 341.887C312.919 317.56 312.809 293.23 312.812 268.901C312.812 265.917 312.812 262.933 312.812 258.663C311.029 260.894 309.885 262.187 308.893 263.589C285.763 296.29 255.646 320.293 218.453 335.034C196.473 343.746 173.526 348.394 149.723 348.322C115.896 348.221 82.069 348.302 48.2419 348.293C40.8553 348.291 40.9028 348.267 40.9022 340.702C40.8985 289.045 40.8793 237.388 40.8295 185.732C40.8278 183.958 41.3089 182.083 40.2131 180.303C37.6148 180.055 36.6136 182.366 35.0082 183.616C30.2775 187.3 25.544 190.988 20.9677 194.858C18.6032 196.858 17.0595 196.584 15.273 194.14C11.0457 188.358 6.76254 182.607 2.25797 177.041C-0.41229 173.741 0.420167 171.65 3.47528 169.237C21.5152 154.989 39.0965 140.127 57.5875 126.497C66.605 119.85 70.8397 112.897 69.9739 101.362C68.8423 86.2839 69.8442 71.0536 69.6241 55.8929C69.5597 51.4511 71.2886 49.9977 75.4384 50.036C86.102 50.1346 96.7679 50.1079 107.432 50.0048C110.958 49.9707 112.531 51.1523 112.395 54.9594C112.15 61.7822 112.314 68.621 112.372 75.4526C112.387 77.2205 111.839 79.1421 113.372 80.7258C115.587 80.6573 116.728 78.784 118.626 77.5383Z" fill="#37B58D"/>
<path d="M187.11 271.926C183.604 275.125 182.074 271.832 180.437 270.134C165.522 254.66 150.704 239.093 135.855 223.556C129.412 216.815 123.031 210.012 116.478 203.379C113.872 200.741 113.49 198.814 116.437 195.979C123.998 188.708 131.338 181.199 138.578 173.606C141.225 170.831 143.061 171.217 145.551 173.754C156.286 184.694 167.168 195.491 177.972 206.363C182.326 210.745 183.267 210.679 187.512 206.155C216.119 175.668 244.756 145.211 273.392 114.751C278.753 109.048 284.235 103.455 289.492 97.6575C291.781 95.1334 294.213 93.8794 297.73 93.9446C307.724 94.1297 317.724 93.9662 327.722 93.9873C329.666 93.9915 331.759 93.5582 333.923 95.8216C285.084 154.41 236.21 213.042 187.11 271.926Z" fill="#F29130"/>
<path d="M316.487 65.5519C309.043 60.5669 308.6 60.5542 301.466 66.3328C296.802 70.1106 291.452 72.572 286.41 75.2691C284.093 73.3174 285.04 71.5092 285.498 69.8221C287.02 64.214 288.444 58.5701 290.239 53.0484C291.469 49.2645 290.366 46.7208 287.388 44.3731C282.943 40.8684 278.681 37.1298 274.357 33.4721C273.002 32.3254 271.21 31.4554 271.415 28.6694C276.168 26.9029 281.475 26.9866 286.374 27.2167C295.449 27.643 300.551 24.5066 302.861 15.4188C304.112 10.4973 305.192 5.02468 308.98 0.967285C312.094 1.85609 312.201 4.52612 313.021 6.52612C315.041 11.4534 316.87 16.4622 318.66 21.4797C319.944 25.0818 322.388 26.7326 326.188 26.851C331.679 27.0221 337.164 27.4148 342.651 27.7017C344.454 27.7959 346.352 27.5577 347.707 29.2255C347.599 32.1261 345.042 32.8876 343.362 34.3391C340.716 36.6253 338.039 38.8841 335.261 41.0062C326.785 47.4823 326.703 47.6996 329.951 58.0715C331.244 62.1998 332.486 66.3451 333.67 70.5059C334.113 72.0657 334.758 73.7196 332.948 75.7309C327.275 73.0682 322.045 69.3833 316.487 65.5519Z" fill="#FFEE00"/>
</g>
<defs>
<clipPath id="clip0_7_2">
<rect width="384" height="349" fill="white"/>
</clipPath>
</defs>
</svg>
